<?xml version="1.0" standalone="no"?>
<!DOCTYPE svg PUBLIC "-//W3C//DTD SVG 20010904//EN"
 "http://www.w3.org/TR/2001/REC-SVG-20010904/DTD/svg10.dtd">
<svg version="1.0" xmlns="http://www.w3.org/2000/svg"
 width="264.000000pt" height="264.000000pt" viewBox="0 0 264.000000 264.000000"
 preserveAspectRatio="xMidYMid meet">
<metadata>
Created by potrace 1.14, written by Peter Selinger 2001-2017
</metadata>
<g transform="translate(0.000000,264.000000) scale(0.100000,-0.100000)"
fill="#000000" stroke="none">
<path d="M777 2408 c-36 -47 -75 -134 -88 -197 -18 -86 -7 -246 20 -306 80
-179 280 -213 401 -68 128 156 32 427 -161 452 l-51 6 -27 70 c-32 84 -55 95
-94 43z"/>
<path d="M1803 2403 c-8 -21 -21 -54 -28 -73 -11 -32 -16 -35 -63 -41 -200
-25 -293 -298 -156 -457 119 -140 315 -103 396 73 20 44 23 65 23 180 -1 147
-16 206 -80 302 -43 65 -69 70 -92 16z"/>
<path d="M277 1778 c-65 -87 -97 -191 -97 -319 0 -141 40 -218 136 -265 42
-21 64 -25 95 -21 153 20 238 202 165 351 -31 63 -73 102 -137 125 -41 15 -45
21 -69 86 -31 84 -54 95 -93 43z"/>
<path d="M2345 1715 c-43 -61 -48 -65 -86 -65 -166 0 -283 -209 -204 -366 28
-55 74 -91 135 -105 93 -21 202 45 249 151 49 112 54 298 11 398 -30 70 -47
68 -105 -13z"/>
<path d="M1175 1648 c-165 -56 -282 -193 -320 -376 -25 -124 -59 -171 -164
-229 -181 -102 -284 -303 -252 -494 18 -109 59 -190 138 -268 101 -100 208
-145 342 -143 94 2 168 23 253 73 114 67 203 68 306 4 82 -50 169 -75 262 -76
139 -1 241 42 343 142 151 150 185 355 91 547 -43 88 -116 165 -205 215 -105
58 -139 105 -164 229 -39 189 -165 329 -344 384 -69 21 -213 17 -286 -8z"/>
</g>
</svg>
